<svg width="66" height="56" viewBox="0 0 66 56" fill="none" xmlns="http://www.w3.org/2000/svg">
<path d="M18.8827 36.489H30.0541C31.0181 36.489 31.7994 35.6965 31.7994 34.7193C31.7994 33.7416 31.0179 32.9486 30.0541 32.9486H23.096L29.6252 26.3267C31.0271 24.9049 31.7994 23.0146 31.7994 21.0036C31.7994 18.9928 31.0271 17.1025 29.6252 15.6807C28.2237 14.2587 26.3596 13.4758 24.3771 13.4758C22.3943 13.4758 20.5305 14.2589 19.1289 15.6807C18.4471 16.3717 18.4471 17.4928 19.1289 18.1842C19.8107 18.8752 20.9155 18.8752 21.5973 18.1837C22.3395 17.4307 23.3272 17.0162 24.3771 17.0162C25.4272 17.0162 26.4146 17.4307 27.1571 18.1842C27.8998 18.9368 28.3085 19.9382 28.3085 21.0036C28.3085 22.0686 27.8998 23.0701 27.1571 23.8232L17.6482 33.4677C17.1488 33.9736 16.9998 34.7352 17.2696 35.3969C17.5401 36.058 18.1766 36.489 18.8827 36.489Z" fill="#111111"/>
<path d="M46.8412 32.9494H45.358V29.3936C45.358 28.4164 44.5767 27.6235 43.6126 27.6235C42.6486 27.6235 41.8676 28.4164 41.8676 29.3936V32.9494H37.6879L45.2049 15.9715C45.5997 15.0799 45.2069 14.032 44.3275 13.6316C43.4481 13.2312 42.4152 13.6293 42.0204 14.521L33.3986 33.9945C33.1561 34.5421 33.2037 35.1772 33.5252 35.6816C33.8471 36.1855 34.3984 36.4894 34.9906 36.4894H41.8673V40.0457C41.8673 41.0229 42.6484 41.8161 43.6124 41.8161C44.5767 41.8161 45.3577 41.0229 45.3577 40.0457V36.4894H46.841C47.805 36.4894 48.5865 35.697 48.5865 34.7198C48.5868 33.7421 47.805 32.9494 46.8412 32.9494Z" fill="#333333"/>
<path d="M65.4902 26.7614C65.1786 26.2138 64.6021 25.876 63.9788 25.876H59.8532C59.4376 19.215 56.6832 13.0101 51.9878 8.24848C46.879 3.06702 40.0866 0.213623 32.8619 0.213623C31.8979 0.213623 31.1166 1.00605 31.1166 1.98352C31.1166 2.9615 31.8981 3.75366 32.8619 3.75366C45.2646 3.75366 55.4588 13.5251 56.3548 25.8763H52.3512C51.7275 25.8763 51.1515 26.2141 50.8399 26.7616C50.5277 27.3094 50.5277 27.9842 50.8399 28.532L56.6533 38.745C56.9654 39.2928 57.5414 39.6298 58.1647 39.6298C58.7884 39.6298 59.3646 39.2928 59.6763 38.745L65.4899 28.532C65.8016 27.9839 65.8016 27.3092 65.4902 26.7614ZM58.1647 34.3189L55.3742 29.4163H60.9559L58.1647 34.3189Z" fill="#111111"/>
<path d="M27.4165 3.88674C27.8754 3.88674 28.3257 3.68976 28.6505 3.34787C28.9751 3.00624 29.162 2.5323 29.162 2.04946C29.162 1.56506 28.9754 1.09217 28.6505 0.750548C28.326 0.407612 27.8754 0.212158 27.4165 0.212158C26.9565 0.212158 26.5072 0.407612 26.1819 0.750548C25.8573 1.09217 25.6711 1.5661 25.6711 2.04946C25.6711 2.5323 25.8573 3.00624 26.1819 3.34787C26.5072 3.68976 26.9565 3.88674 27.4165 3.88674Z" fill="#111111"/>
<path d="M22.1805 3.88674C22.6392 3.88674 23.0898 3.68976 23.4143 3.34787C23.7401 3.00624 23.9258 2.5323 23.9258 2.04946C23.9258 1.56506 23.7401 1.09217 23.4143 0.750548C23.0898 0.407612 22.6392 0.212158 22.1805 0.212158C21.7215 0.212158 21.2713 0.407612 20.9464 0.750548C20.6206 1.09217 20.4349 1.56506 20.4349 2.04946C20.4349 2.5323 20.6206 3.00624 20.9464 3.34787C21.271 3.68976 21.7215 3.88674 22.1805 3.88674Z" fill="#111111"/>
<path d="M32.8623 51.5381C26.5694 51.5381 20.6539 49.0527 16.2043 44.5402C12.1688 40.4473 9.77776 35.1306 9.36806 29.4154H13.3727C13.3732 29.4154 13.3737 29.4154 13.3742 29.4154C14.3382 29.4154 15.1195 28.623 15.1195 27.6453C15.1195 27.2949 15.019 26.9677 14.8455 26.6931L9.07013 16.5475C8.75875 15.9999 8.18228 15.6627 7.55877 15.6627C6.93526 15.6627 6.35904 15.9999 6.04741 16.5475L0.233722 26.7605C-0.0779074 27.3083 -0.0779074 27.983 0.233722 28.5308C0.545352 29.0787 1.12157 29.4157 1.74508 29.4157H5.87044C6.28661 36.0775 9.04076 42.2816 13.7359 47.0435C18.8446 52.2254 25.637 55.0786 32.862 55.0786C33.826 55.0786 34.6071 54.2862 34.6071 53.3082C34.6073 52.331 33.8263 51.5381 32.8623 51.5381ZM7.55901 20.9729L10.3498 25.8751H4.76829L7.55901 20.9729Z" fill="#111111"/>
<path d="M38.3078 51.5378C37.8488 51.5378 37.3986 51.7348 37.0737 52.0759C36.7492 52.4178 36.5625 52.8918 36.5625 53.3749C36.5625 53.859 36.7492 54.3321 37.0737 54.674C37.3983 55.0164 37.8488 55.2121 38.3078 55.2121C38.7678 55.2121 39.2171 55.0164 39.5426 54.674C39.8672 54.3321 40.0529 53.8585 40.0529 53.3749C40.0529 52.8918 39.8672 52.4178 39.5426 52.0759C39.2171 51.7348 38.7678 51.5378 38.3078 51.5378Z" fill="#111111"/>
<path d="M43.5441 51.5378C43.0842 51.5378 42.6347 51.7348 42.3101 52.0759C41.9845 52.4178 41.7988 52.8918 41.7988 53.3749C41.7988 53.8585 41.9848 54.3321 42.3101 54.674C42.6347 55.0164 43.0842 55.2121 43.5441 55.2121C44.0031 55.2121 44.4537 55.0164 44.778 54.674C45.1026 54.3321 45.2897 53.8585 45.2897 53.3749C45.2897 52.8918 45.1028 52.4178 44.778 52.0759C44.4537 51.7348 44.0029 51.5378 43.5441 51.5378Z" fill="#111111"/>
</svg>
