<svg width="88" height="56" viewBox="0 0 88 56" fill="none" xmlns="http://www.w3.org/2000/svg">
<path d="M3.17007 22.4686H2.3254C1.04099 22.4686 0 23.5663 0 24.92C0 26.2736 1.04099 27.3713 2.3254 27.3713H3.17007C4.45383 27.3713 5.49552 26.2736 5.49552 24.92C5.49552 23.5663 4.45416 22.4686 3.17007 22.4686Z" fill="#111111"/>
<path d="M22.5087 27.3713C23.7927 27.3713 24.8344 26.2736 24.8344 24.92C24.8344 23.5663 23.7927 22.4686 22.5087 22.4686H9.60348C8.31973 22.4686 7.27808 23.5663 7.27808 24.92C7.27808 26.2736 8.31973 27.3713 9.60348 27.3713H22.5087Z" fill="#111111"/>
<path d="M11.0378 18.2714H11.8729C13.1576 18.2714 14.1983 17.1737 14.1983 15.8204C14.1983 14.466 13.1576 13.3687 11.8729 13.3687H11.0378C9.75339 13.3687 8.7124 14.4664 8.7124 15.8204C8.7124 17.1737 9.75339 18.2714 11.0378 18.2714Z" fill="#111111"/>
<path d="M25.0519 13.3687H18.3068C17.0221 13.3687 15.9811 14.4664 15.9811 15.8204C15.9811 17.174 17.0221 18.2714 18.3068 18.2714H25.0519C26.3364 18.2714 27.3773 17.1737 27.3773 15.8204C27.3773 14.466 26.3364 13.3687 25.0519 13.3687Z" fill="#111111"/>
<path d="M11.8832 31.5696H11.0378C9.75339 31.5696 8.7124 32.6674 8.7124 34.0214C8.7124 35.375 9.75339 36.4724 11.0378 36.4724H11.8832C13.1676 36.4724 14.2086 35.3747 14.2086 34.0214C14.2086 32.6674 13.1676 31.5696 11.8832 31.5696Z" fill="#111111"/>
<path d="M25.0519 31.5696H18.3168C17.0324 31.5696 15.9913 32.6674 15.9913 34.0214C15.9913 35.375 17.0324 36.4724 18.3168 36.4724H25.0519C26.3363 36.4724 27.3773 35.3747 27.3773 34.0214C27.3773 32.6674 26.3363 31.5696 25.0519 31.5696Z" fill="#111111"/>
<path d="M86.9598 27.0353L75.7987 14.1665C75.3586 13.6582 74.7352 13.3687 74.0822 13.3687H60.8864V2.95139C60.8864 1.59739 59.8455 0.5 58.561 0.5H16.1826C14.8982 0.5 13.8572 1.59774 13.8572 2.95139C13.8572 4.30504 14.8982 5.40278 16.1826 5.40278H56.2353V44.439H36.1794C35.1749 40.8819 32.0466 38.2801 28.3509 38.2801C24.6552 38.2801 21.5262 40.8819 20.5227 44.439H16.1826C14.8982 44.439 13.8572 45.5364 13.8572 46.8901C13.8572 48.2444 14.8982 49.3415 16.1826 49.3415H20.5227C21.5262 52.8979 24.6552 55.5 28.3509 55.5C32.0466 55.5 35.1749 52.8979 36.1794 49.3415H58.5607H64.0731C65.0776 52.8979 68.2066 55.5 71.9017 55.5C75.5981 55.5 78.7264 52.8979 79.7305 49.3415H85.2433C86.5277 49.3415 87.5687 48.2441 87.5687 46.8901V28.6892C87.5694 28.0778 87.3515 27.4873 86.9598 27.0353ZM28.3509 50.5979C26.4118 50.5979 24.8342 48.9349 24.8342 46.8904C24.8342 44.8463 26.4118 43.1829 28.3509 43.1829C30.2899 43.1829 31.8675 44.8467 31.8675 46.8904C31.8679 48.9349 30.2899 50.5979 28.3509 50.5979ZM71.902 50.5979C69.963 50.5979 68.3854 48.9349 68.3854 46.8904C68.3854 44.8463 69.9633 43.1829 71.902 43.1829C73.8417 43.1829 75.4193 44.8467 75.4193 46.8904C75.4196 48.9349 73.8417 50.5979 71.902 50.5979ZM79.7312 44.4394C78.727 40.8822 75.5987 38.2805 71.9023 38.2805C68.2069 38.2805 65.0783 40.8822 64.0738 44.4394H60.8868V18.2719H73.0581L79.967 26.2382H66.7948C65.5111 26.2382 64.4701 27.3359 64.4701 28.6896C64.4701 30.0439 65.5111 31.141 66.7948 31.141H82.9185V44.439H79.7312V44.4394Z" fill="#111111"/>
</svg>
